<svg xmlns="http://www.w3.org/2000/svg" width="60" height="40" fill="none"><path fill="#AE8C5E" d="m59.065 12.016-1.563.277a50.4 50.4 0 0 0-8.83 2.413V6.04l-.834.38a77 77 0 0 0-5.388 2.708L42.396.065l-.912.587a75.3 75.3 0 0 0-12.03 9.645A107 107 0 0 0 17.786.666L16.874 0v9.391a66 66 0 0 0-5.712-2.888l-.83-.366.037 8.038a38 38 0 0 0-8.556-1.932l-1.4-.144L11.61 26.288l-.05-10.385c1.824.722 3.6 1.565 5.315 2.523v8.99l.118.161c3.291 4.492 11.948 11.8 12.308 12.109l.373.314.379-.314c.364-.305 9.03-7.538 12.307-12.206l.196-.333-.054-8.37a53 53 0 0 1 4.986-2.343v9.91zm-10.392 3.97c2.42-.931 4.91-1.67 7.443-2.209l-7.443 9.243zM3.09 13.63c2.473.37 4.904.99 7.256 1.849l.037 7.394zM41.224 2.255v7.561a60 60 0 0 0-7.357 5.033 85 85 0 0 0-1.536-1.664 100 100 0 0 0-2.038-2.07 73 73 0 0 1 10.94-8.86M21.4 19.817a53 53 0 0 0-3.35-2.107v-6.235a65 65 0 0 1 6.336 4.423 69 69 0 0 0-2.986 3.929m3.893-3.19a58 58 0 0 1 3.364 2.95 65 65 0 0 0-3.095 3.4c-.912-.78-2.006-1.621-3.19-2.48a74 74 0 0 1 2.935-3.87m7.671-1.04a60 60 0 0 0-3.469 3.148 76 76 0 0 0-3.446-3.032 71 71 0 0 1 3.424-3.766 78 78 0 0 1 3.491 3.642m-.178 8.217c-1.577 1.285-2.67 2.31-3.236 2.884a46 46 0 0 0-3.081-2.94 62 62 0 0 1 3.05-3.35 64 64 0 0 1 3.267 3.406m-7.083.86a40 40 0 0 1 3.391 3.285l.433.495.456-.462a39 39 0 0 1 3.606-3.268q1.117 1.28 2.16 2.63l-6.053 5.763-6.122-5.74c.698-.924 1.4-1.849 2.115-2.699m4.654-5.107a56 56 0 0 1 3.4-3.078 65 65 0 0 1 3.333 4.16l-.324.217a62 62 0 0 0-3.05 2.214 69 69 0 0 0-3.359-3.503m4.312-3.823a58 58 0 0 1 6.569-4.538v6.905a57 57 0 0 0-3.168 1.88 67 67 0 0 0-3.41-4.247M18.04 2.31c3.717 2.7 7.254 5.644 10.59 8.814-.616.629-1.217 1.262-1.824 1.913-.606.652-1.116 1.29-1.654 1.942a66 66 0 0 0-7.093-4.9zm-4.8 12.992c-.564-.245-1.134-.462-1.704-.693l-.032-6.632a66 66 0 0 1 5.356 2.773v6.313a46 46 0 0 0-3.62-1.76m7.472 5.495a76 76 0 0 0-2.671 4.192v-5.883a47 47 0 0 1 2.67 1.7m8.963 17.641c-1.678-1.437-8.547-7.394-11.52-11.277a78 78 0 0 1 3.524-5.689 53 53 0 0 1 3.123 2.417 73 73 0 0 0-2.475 3.19l-.32.429 7.704 7.228 7.612-7.293-.332-.43a69 69 0 0 0-2.494-3.059 51 51 0 0 1 2.917-2.117l.37-.245a51 51 0 0 1 3.414 5.482c-2.959 4.007-9.842 9.936-11.524 11.364m11.582-13.675a56 56 0 0 0-2.475-3.818 56 56 0 0 1 2.466-1.483zm1.25-7.34-.047-6.932c1.6-.924 3.273-1.77 5.015-2.592v7.237a56 56 0 0 0-4.987 2.288"></path></svg>